<svg t="1629807554394" class="icon" viewBox="0 0 1024 1024" version="1.1" xmlns="http://www.w3.org/2000/svg" p-id="8371" width="200" height="200"><path d="M928 864H128V125.376a34.56 34.56 0 0 0-32-32 34.56 34.56 0 0 0-32 32V902.4a25.6 25.6 0 0 0 25.6 25.6h838.4a32 32 0 0 0 0-64z" p-id="8372"></path><path d="M256 798.528a80.128 80.128 0 1 0-62.848-62.912 80.192 80.192 0 0 0 62.848 62.912zM698.112 797.952a112 112 0 1 0-87.936-87.936 112.128 112.128 0 0 0 87.936 87.936zM422.4 511.104A48 48 0 1 0 384.896 473.6 48 48 0 0 0 422.4 511.104zM787.52 350.72a64 64 0 1 0-50.304-49.92 64 64 0 0 0 50.304 49.92z" p-id="8373"></path></svg>