<svg t="1629807378197" class="icon" viewBox="0 0 1024 1024" version="1.1" xmlns="http://www.w3.org/2000/svg" p-id="2808" width="200" height="200"><path d="M440.32 139.264v364.544c0 45.056 36.864 81.92 81.92 81.92h364.544c-34.816 176.128-190.464 307.2-372.736 307.2H491.52C303.104 880.64 147.456 724.992 135.168 536.576 122.88 342.016 253.952 172.032 440.32 139.264M477.184 61.44h-4.096C233.472 79.872 47.104 290.816 61.44 540.672c14.336 225.28 198.656 409.6 423.936 423.936h28.672c237.568 0 430.08-182.272 450.56-413.696 2.048-22.528-14.336-38.912-36.864-38.912H522.24c-6.144 0-8.192-4.096-8.192-8.192V96.256c0-20.48-16.384-34.816-36.864-34.816zM892.928 264.192c-34.816-55.296-81.92-100.352-133.12-133.12-38.912-24.576-81.92-45.056-129.024-55.296-22.528-6.144-45.056 12.288-45.056 36.864 0 16.384 10.24 30.72 26.624 34.816 14.336 4.096 30.72 8.192 45.056 14.336 94.208 38.912 167.936 114.688 206.848 206.848 6.144 14.336 10.24 30.72 16.384 45.056 4.096 16.384 18.432 26.624 34.816 26.624 22.528 0 40.96-22.528 36.864-45.056-14.336-47.104-32.768-90.112-59.392-131.072z" p-id="2809"></path></svg>