<svg t="1629807483938" class="icon" viewBox="0 0 1024 1024" version="1.1" xmlns="http://www.w3.org/2000/svg" p-id="6601" width="200" height="200"><path d="M924.762941 417.401905l-148.967619 40.472381-119.076572 227.035428 122.392381 180.809143 145.65181-448.316952z m-15.652571-35.596191L533.936274 109.226667v160.719238l214.064762 155.550476 161.060572-43.739429zM725.082941 471.576381l-179.785143 48.761905 86.893714 128.341333 92.891429-177.103238z m-24.771048-33.158095l-166.375619-120.929524v166.083048l166.375619-45.202286z m-455.289904 427.836952l92.988952-134.680381-88.990476-273.846857-149.845334-40.472381 145.846858 448.999619z m30.086095 24.234667h474.258286L624.145798 705.487238l-259.023238 54.613333-89.965714 130.438096z m90.404571-198.753524l117.857524-170.764191-190.025143-51.297523 72.167619 222.061714z m31.353905 22.332952l203.922286-43.056762-86.308572-127.463619-117.613714 170.520381zM495.463131 105.276952l-380.489142 276.48 161.304381 43.495619 219.184761-159.256381V105.276952z m0 208.262096L324.016274 438.125714l171.446857 46.275048V313.539048z m501.76 92.501333L829.433417 922.721524a48.128 48.128 0 0 1-45.787428 33.255619H240.389608a48.128 48.128 0 0 1-45.787429-33.255619L26.714941 406.040381a48.128 48.128 0 0 1 17.505524-53.784381L483.711512 32.914286a48.128 48.128 0 0 1 56.56381 0l439.491048 319.341714c16.871619 12.239238 23.893333 33.987048 17.505523 53.784381z" p-id="6602"></path></svg>